<?xml version="1.0" encoding="UTF-8"?>
<svg width="244.46" height="334.14" enable-background="new 0 0 244.464 334.145" viewBox="0 0 244.464 334.145" xmlns="http://www.w3.org/2000/svg">
 <g fill-rule="evenodd">
  <path d="m210.1,44.087c3.069,4.812 2.583,11.381 2.752,17.43 .164,5.917.771,12.795-.918,18.347-.534,1.759-.053,1.695-.917,2.752-1.414,1.729-3.021,3.597-4.587,6.421-5.842,10.536-7.843,29.54 0,41.28 1.631,2.44 4.208,3.596 5.504,6.421-1.047,31.347-1.834,66.516-1.834,103.66 0,10.887.459,22.596-3.67,32.106-30.281.713-73.74.993-101.82,1.835-9.457.283-19.023,1.061-27.521-1.835-2.682-6.817-1.026-13.955-.917-21.099 .227-14.833-.241-30.098 0-45.867 .317-20.807.412-40.605.917-60.544 .376-14.828-1.15-29.614 0-44.032 .677-8.486 3.268-16.932 2.752-25.686-.251-4.271-2.47-8.686-2.752-12.843-.455-6.714 1.264-12.931 3.669-19.264 22.708-2.522 50.636-1.834 77.974-1.834 9.191,0 17.979-.181 26.603,0 8.76.186 17.51.259 24.78,2.754zm-121.09,25.686c-1.196,2.167-5.824.903-5.504,4.586 5.401,4.697 11.486,8.438 15.595,14.678 1.884,2.861 1.485,7.577 5.504,9.173 1.063-.174 1.383-1.044 1.835-1.834 .663-1.162 1.392-1.972 1.834-2.752 1.087-1.916 1.227-4.536 2.752-6.421 4.478-5.534 13.004-7.238 16.513-13.76-9.238-5.134-17.657-11.086-20.182-22.934h-2.752c-2.59,9.023-9.011,14.22-15.587,19.264zm96.317-19.264h-2.752c-1.797,3.401-4.499,5.897-5.504,10.091-3.772,1.532-5.53,5.131-9.174,7.339-1.959,1.187-4.16,1.854-6.421,2.752-1.967.78-5.971.465-6.422,3.669 15.54,1.501 23.793,13.383 26.604,24.769 4.815-.689 3.542-7.466 5.504-11.008 3.041-2.183 5.354-4.998 8.256-7.338 2.931-2.364 8.027-3.483 8.256-8.256-7.6-5.869-15.44-11.475-18.36-22.018zm-57.79,47.701c-1.162.646-4.818-.048-4.587,2.752-1.653,1.714 3.818,4.086 6.421,4.587 4.789,6.219 12.018,9.999 13.761,19.264 5.413-1.159 4.884-7.429 7.339-11.008 1.653-2.412 5.661-5.115 7.339-6.421 .769-.599 1.04-2.157 1.834-2.752 1.304-.976 5.308-.48 4.587-3.669-5.355-5.597-13.72-9.102-16.512-17.429-.919-2.74.06-5.966-1.835-9.174-3.58,10.3-10.39,19.431-18.34,23.853zm53.21,14.68c-4.7,4.474-8.453,9.894-13.76,13.76-1.974,1.696-6.238,1.101-5.504,5.504 1.203,2.013 3.725,2.411 5.504,3.669 1.597,1.129 2.432,4.089 5.504,3.669 .863,3.724 4.261,4.913 5.504,8.256 1.786,2.496.063,8.499 4.587,8.256 3.633-1.838 3.19-6.419 4.587-9.173 .188-.372 1.622-.469 1.835-.917 .322-.68-.427-2.142 0-2.752 1.023-1.465 3.96-4.242 5.504-5.504 2.278-1.863 6.413-2.184 7.339-5.504-7.013-6.748-15.344-12.177-17.43-23.851-1.173-.05-1.271-1.176-2.752-.917 .67,2.79-1.58,2.68-.91,5.49zm-99.076,19.26c1.229,3.358 4.207,4.967 7.339,6.421 1.532,3.316 5.042,4.446 7.339,7.339 2.434,3.066 3.085,8.491 7.339,10.091 3.191-7.316 6.193-12.831 11.925-17.43 2.802-2.248 6.707-2.684 8.256-6.421-7.61-6.149-16.699-10.82-18.347-22.933h-2.752c-3.637,11.05-10.483,18.88-21.106,22.93zm99.076,36.7c-3.466,6.713-8.027,11.925-14.677,15.595-2.908,1.604-8.381.695-9.174,5.504 7.111,5.12 15.355,9.107 20.182,16.512 2.147,1.217.419,6.309 3.669,6.422 4.545-.725 3.562-6.149 5.505-9.174 2.4-3.738 6.048-6.353 9.173-9.173 1.753-2.223 6.539-1.411 6.422-5.504-3.221-6.259-10.232-8.727-13.761-14.678-1.444-2.531-2.559-5.391-3.669-8.256h-2.752c-.06,1.18-1.18,1.27-.92,2.76zm-99.076,20.18c1.408,4.085 6.409,4.964 9.173,7.339 4.002,3.438 5.714,7.848 8.256,11.925 1.779,1.891-.092,7.43 4.587,6.422 2.101-1.568 2.169-5.17 2.752-8.257 4.431-6.576 13.018-8.997 16.512-16.512-7.502-4.729-13.083-11.379-17.43-19.264-1.173-.051-1.271-1.176-2.752-.918-2.29,11.15-11.437,15.46-21.096,19.26zm39.446,26.6c1.35,4.743 6.873,5.338 10.091,8.256 2.525,2.29 3.718,6.09 6.422,8.256 1.982,2.299 1.544,7.018 4.586,8.257 1.575-1.483 2.279-3.837 1.835-7.339 3.536-3.292 6.164-7.23 10.091-10.091 3.15-2.295 7.631-3.076 9.174-6.422-2.046-4.984-8.465-4.809-11.926-8.256-3.286-3.272-3.909-8.374-6.422-12.843-.202-.715-.768-1.066-1.834-.917-4.42,9.95-11.76,16.98-22.02,21.09zm58.71,6.42c-2.984,3.774-4.151,8.591-7.339,11.926-.715.749-2.667,1.031-3.669,1.835-1.255,1.006-1.718,2.028-2.752,2.752-2.129,1.489-6.352,1.777-6.422,5.504 6.551,4.13 13.293,8.793 16.513,14.678 1.59,2.906 2.096,6.787 5.504,8.256 2.646-3.669 3.731-7.919 5.504-10.091 .571-.7 1.17-2.076 1.835-2.752 3.687-3.747 13.172-5.335 12.843-11.008-.237-4.067-5.484-4.419-9.174-7.339-2.359-1.868-3.594-4.744-4.587-6.422-1.803-3.045-2.735-5.866-6.421-7.339-.61-.01-1.22-.01-1.83-.01zm-96.321,25.69c1.595,3.91 5.408,5.601 9.173,7.339 1.097,4.102 5.019,5.379 6.422,9.174 2.014,1.655.714,6.624 4.587,6.421 4.614-4.866 6.397-12.303 11.008-16.512 1.201-1.097 3.941-1.607 5.504-2.752 1.433-1.05 3.75-2.163 3.669-4.587-8.471-4.371-15.321-10.363-18.347-20.182-1.309-.22-1.547-1.511-2.752-1.834-3.852,10.21-8.809,19.31-19.261,22.93z" fill="#fff"/>
  <path d="m104.61,50.509h2.752c2.524,11.847 10.943,17.8 20.182,22.934-3.509,6.522-12.035,8.226-16.513,13.76-1.525,1.886-1.665,4.506-2.752,6.421-.442.781-1.171,1.59-1.834,2.752-.452.791-.771,1.66-1.835,1.834-4.019-1.597-3.62-6.312-5.504-9.173-4.109-6.24-10.194-9.981-15.595-14.678-.32-3.684 4.308-2.419 5.504-4.586 6.564-5.044 12.985-10.241 15.585-19.264z"/>
  <path d="m203.68,72.525c-.229,4.773-5.325,5.892-8.256,8.256-2.902,2.341-5.215,5.156-8.256,7.338-1.962,3.542-.688,10.319-5.504,11.008-2.811-11.386-11.063-23.268-26.604-24.769 .451-3.204 4.455-2.889 6.422-3.669 2.261-.897 4.462-1.565 6.421-2.752 3.644-2.208 5.401-5.807 9.174-7.339 1.005-4.193 3.707-6.689 5.504-10.091h2.752c2.93,10.545 10.77,16.151 18.36,22.018z"/>
  <path d="m55.989,59.682c1.066-.149 1.632.203 1.835.917-1.331,5.283-2.657,10.685-4.587,15.595-.481,1.225-.602,4.177-2.752,3.669 .284-8.277 2.971-14.152 5.504-20.181z" fill="#fff"/>
  <path d="m145.89,74.359c1.895,3.208.916,6.434 1.835,9.174 2.792,8.327 11.156,11.833 16.512,17.429 .721,3.189-3.283,2.693-4.587,3.669-.794.595-1.065,2.153-1.834,2.752-1.678,1.307-5.686,4.009-7.339,6.421-2.455,3.58-1.926,9.849-7.339,11.008-1.743-9.265-8.972-13.045-13.761-19.264-2.603-.501-8.074-2.873-6.421-4.587-.231-2.8 3.425-2.105 4.587-2.752 7.95-4.42 14.76-13.551 18.35-23.849z"/>
  <path d="m66.997,79.864c2.862-1.316 2.862,6.82 0,5.504 .824-2.686.824-2.819 0-5.504z"/>
  <path d="m218.36,82.616c.947-1.476 6.164.501 6.421,2.752-3.55.494-3.78-2.338-6.42-2.752z" fill="#fff"/>
  <path d="m216.52,85.368c1.557-2.376 4.267,1.777 7.339.917-1.74,2.561-5.87-.17-7.34-.917z" fill="#fff"/>
  <path d="m66.997,87.202c4.338.16-.329,3.629.917,6.421-2.051-.394-.372-4.52-.917-6.421z"/>
  <path d="m66.08,99.128c1.401.015 2.011,6.798-.917,5.504 1.314-2.73-.75-3.12.917-5.502z"/>
  <path d="m226.61,99.128c2.674,1.301 4.086,3.864 3.67,8.256-4.419-2.871-3.868,5.973-2.753,9.173-5.96-2.73-5.14-13.33-.92-17.422z" fill="#fff"/>
  <path d="m181.66,107.38c1.481-.258 1.579.867 2.752.917 2.086,11.674 10.417,17.103 17.43,23.851-.926,3.32-5.061,3.642-7.339,5.504-1.544,1.262-4.48,4.039-5.504,5.504-.427.61.322,2.072 0,2.752-.213.448-1.646.545-1.835.917-1.396,2.754-.954,7.335-4.587,9.173-4.523.243-2.801-5.761-4.587-8.256-1.243-3.343-4.641-4.532-5.504-8.256-3.072.42-3.907-2.54-5.504-3.669-1.779-1.259-4.301-1.656-5.504-3.669-.734-4.403 3.53-3.808 5.504-5.504 5.307-3.867 9.06-9.287 13.76-13.76-.66-2.79 1.59-2.68.92-5.49z"/>
  <path d="m102.77 109.22h2.752c1.647 12.113 10.736 16.784 18.347 22.933-1.549 3.738-5.454 4.173-8.256 6.421-5.731 4.599-8.733 10.114-11.925 17.43-4.254-1.6-4.905-7.024-7.339-10.091-2.297-2.893-5.807-4.022-7.339-7.339-3.132-1.455-6.11-3.063-7.339-6.421 10.634-4.05 17.48-11.88 21.107-22.93z"/>
  <path d="m63.328,133.07c4.739,1.888-.566,8.236.917,12.843-3.446-1.3.429-7.88-.917-12.84z" fill="#fff"/>
  <path d="m55.989,139.49c1.401.015 2.011,6.798-.917,5.504-.121-2.26-.139-4.41.917-5.5z"/>
  <path d="m214.69,139.49c2.884-.132 3.151,2.353 3.669,4.587-2.44-.32-3.1-2.41-3.67-4.59z" fill="#fff"/>
  <path d="m58.741,141.32c1.562,2.823 1.97,12.339-1.834,12.843 1.906-2.98-.199-9.98 1.834-12.84z"/>
  <path d="m68.832,146.83c.845-2.705 2.627,9.439-.917,8.256 1.535-1.53.729-5.39.917-8.26z" fill="#fff"/>
  <path d="m214.69,147.75c2.534.071 3.26,10.161 0,10.091v-10.09z" fill="#fff"/>
  <path d="m58.741,156c.334,3.085-3.975,1.529-5.504,2.752-.334-3.08 3.975-1.52 5.504-2.75z"/>
  <path d="m223.86,156c3.89,1.309 3.222,7.175 4.587,11.008-5.19-.01-2.77-7.63-4.59-11.01z" fill="#fff"/>
  <path d="m67.914,157.84c2.051.395.372,4.521.917,6.421-1.075-.148-.774-1.672-.917-2.752-1.646-.117-1.935,1.123-3.669.917-1.202-3.96 4.367-1.14 3.669-4.59z" fill="#fff"/>
  <path d="m63.328,159.67c-.093,2.353-3.418,1.474-4.587,2.752-.364,2.917.563,10.537-2.752,11.008 1.832-4.796 1.004-6.667 1.835-11.926 1.714-.72 3.359-1.53 5.504-1.83z" fill="#fff"/>
  <path d="m181.66,166.09h2.752c1.11,2.865 2.225,5.725 3.669,8.256 3.528,5.951 10.54,8.419 13.761,14.678 .117,4.093-4.669,3.281-6.422,5.504-3.125,2.82-6.772,5.435-9.173,9.173-1.942,3.024-.96,8.449-5.505,9.174-3.25-.113-1.521-5.205-3.669-6.422-4.826-7.404-13.07-11.392-20.182-16.512 .793-4.809 6.266-3.899 9.174-5.504 6.649-3.67 11.211-8.882 14.677-15.595-.25-1.48.87-1.57.92-2.75z"/>
  <path d="m53.237,168.85c2.716.203 2.158,4.717 0,5.504 .798,2.668 1.374,1.031 3.669.917 .116,2.8-4.776,2.577-5.504,1.835 .985-2.38 2.229-4.5 1.835-8.25z" fill="#fff"/>
  <path d="m102.77,169.76c1.481-.258 1.579.867 2.752.918 4.347,7.885 9.928,14.534 17.43,19.264-3.494,7.515-12.081,9.936-16.512,16.512-.583,3.087-.651,6.688-2.752,8.257-4.679,1.008-2.808-4.531-4.587-6.422-2.542-4.077-4.254-8.487-8.256-11.925-2.765-2.375-7.765-3.254-9.173-7.339 9.659-3.79 18.806-8.1 21.096-19.26z"/>
  <path d="m55.989,188.11c3.349.321 1.42,5.919 2.752,8.257-2.489-1.18-2.78-4.56-2.752-8.26z"/>
  <path d="m143.14,194.53c1.066-.149 1.632.202 1.834.917 2.513,4.469 3.136,9.57 6.422,12.843 3.461,3.447 9.88,3.271 11.926,8.256-1.543,3.346-6.023,4.127-9.174,6.422-3.927,2.86-6.555,6.799-10.091,10.091 .444,3.502-.26,5.855-1.835,7.339-3.042-1.239-2.604-5.958-4.586-8.257-2.704-2.166-3.896-5.966-6.422-8.256-3.218-2.918-8.741-3.513-10.091-8.256 10.26-4.1 17.6-11.13 22.02-21.09z"/>
  <path d="m57.824,198.2c3.224.751 2.467,5.483 2.752,9.174-3.311-.66-.962-6.99-2.752-9.17z"/>
  <path d="m55.071,200.04c3.848.127.608,7.343 2.752,9.174-3.224-.75-2.467-5.48-2.752-9.17z"/>
  <path d="m48.65,200.95c2.538,2.049 1.976,7.198 2.752,11.009-3.138-.38-2.364-6.52-2.752-11.01z"/>
  <path d="m44.981,202.79c1.066-.149 1.632.202 1.834.917 .154,4.61 2.635,11.451 1.834,18.347-.132,1.141.925,4.463-1.834,3.67 .21-8.47-.587-15.93-1.834-22.94z"/>
  <path d="m42.229,203.7c3.153,1.128 1.341,7.222 2.752,10.091-3.701-.57-2.491-6.07-2.752-10.09z"/>
  <path d="m59.658,211.96c2.892-.454 1.785,5.298 3.669.917 2.624.128 1.677,3.826 1.834,6.421-3.174.686-1.339-6.813-3.669-1.834-2.712-1.33-.791-2.05-1.834-5.51z"/>
  <path d="m53.237,219.3c2.862-1.315 2.862,6.82 0,5.505 1.028-2.89.083-2.07 0-5.5z"/>
  <path d="m181.66,222.05c3.686,1.473 4.618,4.294 6.421,7.339 .993,1.678 2.228,4.554 4.587,6.422 3.689,2.92 8.937,3.271 9.174,7.339 .329,5.673-9.156,7.261-12.843,11.008-.665.676-1.264,2.052-1.835,2.752-1.772,2.172-2.857,6.422-5.504,10.091-3.408-1.469-3.914-5.35-5.504-8.256-3.22-5.885-9.962-10.548-16.513-14.678 .07-3.727 4.293-4.015 6.422-5.504 1.034-.724 1.497-1.746 2.752-2.752 1.002-.804 2.954-1.086 3.669-1.835 3.188-3.335 4.354-8.151 7.339-11.926h1.83z"/>
  <path d="m102.77,224.8c1.205.323 1.443,1.614 2.752,1.834 3.025,9.818 9.876,15.811 18.347,20.182 .081,2.424-2.236,3.537-3.669,4.587-1.562,1.145-4.303,1.655-5.504,2.752-4.61,4.209-6.394,11.646-11.008,16.512-3.873.203-2.573-4.766-4.587-6.421-1.403-3.795-5.325-5.072-6.422-9.174-3.765-1.738-7.579-3.429-9.173-7.339 10.453-3.61 15.41-12.71 19.262-22.93z"/>
  <path d="m46.815,232.14c1.451,1.607 1.228,4.888 1.834,7.339-3.617.56-1.078-5.04-1.834-7.34z"/>
  <path d="m53.237,233.06c1.401.015 2.011,6.798-.917,5.504 1.314-2.73-.75-3.12.917-5.5z" fill="#fff"/>
  <path d="m43.146,234.89c3.453-.03.97,4.06.917,6.422-.097,4.382.073,10.477 0,15.595-4.376-.121-1.22-2.08-1.835-5.504-1.56-.337-1.73.716-1.834,1.835-2.523.2-1.896-6.544 1.834-5.505-.061-4.65 1.577-7.6.918-12.85z"/>
  <path d="m57.824,234.89c3.05-1.128 2.243,6.201.917,6.422-2.762-.18-.8-4.16-.917-6.42z"/>
  <path d="m61.493 262.41c-2.048 2.539-5.114 4.06-9.173 4.587 1.734-2.85 5.622-3.55 9.173-4.59z" fill="#fff"/>
  <path d="m44.981,274.34c.03,2.782-3.219,2.285-5.504,2.752-.334-3.08 3.975-1.53 5.504-2.75z"/>
  <path d="m104.61,278.93c.892.024.712,1.122.917,1.834 2.969,1.134.701-2.968 3.67-1.834 .662,2.803-.938,3.343-.918,5.504-1.382-2.174-1.393-3.388-4.586-1.835-.12-1.65 1.12-1.94.92-3.67z" fill="#fff"/>
  <path d="m37.642,279.84c.679,3.125-3.38,1.512-3.669,3.669-2.64-1.53 1.703-3.71 3.669-3.67z"/>
  <path d="m47.733,282.6c-1.221,1.837-4.072,2.044-6.421,2.752 .07-2.99 4.157-1.96 6.421-2.75z" fill="#fff"/>
  <path d="m79.839,282.6c3.736.316-.038,2.408 1.835,4.587h-2.752c-.375-2.22 1.676-2 .917-4.59z"/>
  <path d="m3.701,284.43c2.261-.121 4.419-.14 5.504.917v3.669c-1.975-1.39-4.495-2.24-5.504-4.59z"/>
  <path d="m94.517,286.26c-.833,3.329-2.707.559-5.504.918 .919-2.55 3.702-1.17 5.504-.92z"/>
  <path d="m25.717,289.02h2.752c-1.242,3.688-.285,2.427 2.752,1.835 .559,2.193-1.152,6.656.917,7.339-.621,3.431-3.049-.679-3.669,2.752-.292,2.433 5.139-.858 3.669,2.752-3.864-1.029-9.303-.482-11.926-2.752 1.333-2.719 3.578,1.209 6.421,0-1.302-4.603-6.643-.573-9.173-2.752 1.46-3.506 1.46-1.081 0-4.587 2.711.138 6.475-2.666 7.339.918 2.269-1.3 1.619-3.17.918-5.51z"/>
  <path d="m47.733,307.36c.942,3.082-2.853,1.428-4.587,1.834-.942-3.07 2.853-1.42 4.587-1.83z"/>
  <path d="m28.469,311.95c.711-1.816 5.912-.495 5.504,1.835-2.144-.3-3.79-1.1-5.504-1.83z"/>
  <path d="m29.386,319.29c5.225,3.23 8.25,3.35 15.595,3.67-.801-3.909-6.378,1.049-7.339-3.67 2.261-.121 4.42-.139 5.504.918 1.419-1.333 1.926-3.578 1.835-6.422 2.819,1.679 4.125-.826 6.421.917-.297-4.289-9.474.302-9.173-4.586 1.838,1.525 6.804-.077 8.256,1.834 3.272-.7-.891-4.348 4.586-3.669-1.149-4.355-12.247,1.239-11.925-4.587 3.175,1.411 8.363.811 12.843.917-5.467-1.628-13.171-1.446-16.512-2.752-.453-2.898 4.552-.34 3.669-3.669-1.247-1.482-6.338.947-10.091,0 .402-3.153-.362-5.142-.917-7.339 2.803.663 3.343-.938 5.504-.917 .429,1.957-1.311,1.747-2.752,1.835-.155,1.989 3.253.415 4.586.917 .083-2.503-1.528-1.847 0-3.67-.604-2.747-1.961.878-3.669,0-.163-4.66 3.099-.2 3.669-3.669-.289-3.056-4.348,2.762-3.669-1.835 5.827-.594 10.043-2.8 14.678-4.586-2.637-1.979-7.095,2.044-11.008,1.834 .691-2.978 5.15-2.188 7.339-3.669 .117-1.646-1.123-1.936-.917-3.67 6.077-.345 8.393-4.449 13.76-5.504-4.123-1.955-8.33,3.882-13.76,3.67 1.698-4.476-.826-1.131-2.752-2.752 1.22-2.505 4.099-2.694 6.421-1.835-.258-1.481.867-1.579.917-2.752-.604-2.747-1.961.877-3.669,0 .625-6.934-1.359-12.638 0-18.347 .313-1.317-1.089-4.439 1.834-3.67 .766,5.14-1.472,8.688 0,11.926 4.016-9.605 1.176-20.406 1.835-33.024 3.27.735.38,8.178 5.504,4.587-1.086,4.688.614,10.605 0,17.43 .221,2.364 1.578-1.26 3.669,0-.062,4.1-2.097,1.169-3.669,2.752-.824,2.539 1.885,8.611-1.834,8.256 .292-3.745.777-5.579 0-8.256-3.258.581.27,5.151-.917,9.173 .4,1.361 1.174-.361 2.752,0-.312,1.841.188,2.87 1.835,2.752 4.257-.675-3.375-4.272 2.752-4.586-.148-1.075-1.673-.774-2.752-.918-.167-2.001.75-2.918 2.752-2.752-.148-1.075-1.673-.773-2.752-.917 .77-3.236 5.439-3.117 2.752-7.339 3.261-1.426.554,3.115 2.752,2.752 2.092-1.271.342-6.385.917-9.174-.797-2.709-1.373,2.129-3.669.918 .824-2.686.824-2.818 0-5.504 1.958-.429 1.747,1.311 1.834,2.752 3.438-.724.057-3.209 1.834-4.587-.603-2.747-1.96.877-3.669,0-.691-3.442 3.504-2 3.669-4.587 2.491-.656-.656,4.326 1.835,3.67 2.285-2.607-.82-10.605 3.669-11.009-.596-1.557-2.109-.573-1.835.918-4.617-1.941 3.113-2.309.917-7.339-2.433-.292.858,5.139-2.752,3.669 .056-4.062.885-9.441-3.669-6.421-.039-3.02-1.549-4.567-.917-8.256 1.614.221 2.091,1.578 1.835,3.669 2.051-.396.372-4.521.917-6.421-1.066-.149-1.632.202-1.834.917-2.64-.945.857-1.647.917-1.835 .44-1.365-1.315-6.447 1.834-5.504-.328,4.609.564,7.997 1.835,11.008 1.119-3.286-.139-12.071-4.587-12.843-2.051.396-.372,4.521-.917,6.422-3.105-.564-1.165-6.174-2.752-8.256-1.747.394-2.305,1.976-4.586,1.834 1.264,1.183.908,3.985.917,6.422-2.251-2.548-2.453-1.831-5.504-2.752-1.47-3.61 3.962-.319 3.669-2.752-.205-1.311-4.565.852-7.339,0 1.771.98 3.75,1.755 2.752,5.504-2.723-2.747-6.821,1.902-8.256-4.587-1.697.138-.563,3.106-1.835,3.669-4.614-4.157.646-10.626.917-15.595 1.561-.337 1.731.716 1.835,1.835 2.932-1.043.87-7.08 4.586-7.339-1.199,2.165-.387,6.34-1.834,8.257 2.456,1.103 1.089-2.202 1.834-2.753 .524-.387 2.311.464 2.752,0 3.237-3.402 3.118-8.396 3.669-13.76 2.593.758 2.376-1.293 4.587-.917-.758-4.544-3.214,2.131-4.587-.917 .838-2.832 4.292-3.046 7.339-3.669 1.141-8.338 2.343-16.616 1.834-26.603-2.039,2.775-7.484,3.434-9.173,0-1.138,3.31-2.456,2.952-4.586,3.669-.772-1.911-3.484-3.869-1.835-5.504 4.12.45 6.874-.465 10.091-.917-3.553-1.247-2.003-2.28-1.834-6.421 4.389-.197 7.868-1.305 8.256-5.504-.4-1.361-1.174.362-2.752,0-.966-3.412 3.094-1.799 3.669-3.669-.4-1.361-1.174.362-2.752,0-.121-2.261-.139-4.42.917-5.504 .83,3.66 3.691,2.343 6.421.917 1.164-4.516-1.772-7.428 2.752-8.256-2.079-.271-1.327-8.187-.917-12.843 .45-5.119 1.979-10.323.917-15.595-2.968-1.134-.701,2.968-3.669,1.834-.43-2.875 2.306-2.586 3.669-3.669-.839-3.871-.382-4.946-.917-10.091-3.546,2.63-3.097-1.155-7.339-.917-3.775,9.068-5.878,19.807-11.008,27.52-2.886-.439-3.586,1.307-5.504,1.835 .225,3.895-2.399,4.939-1.834,9.173-4.204,3.131-4.177,9.222-7.339,13.76-1.095,1.572-3.616,2.404-4.586,4.586-1.699,3.82-1.291,10.04-2.752,15.595-.742,2.822-2.94,5.715-3.669,8.256-.726,2.529-.148,5.39-.917,8.256-.138.513-1.708,1.46-1.835,1.835-.871,2.572-1.022,6.405-1.834,9.173-1.244,4.236-3.248,7.725-4.587,11.925-1.732,5.433-2.873,9.694-3.669,17.43-.914,8.881-5.102,18.269-6.421,27.52-.213,1.493.259,3.103 0,4.587-.361,2.069-1.677,4.359-1.835,6.422-.201,2.629 1.062,5.517.917,8.256-.186,3.497-3.61,10.994-2.752,17.43 6.557,7.061 3.277,17.319 1.834,27.52-2.72-1.755-4.105-8.663-.917-11.008-.93-5.689.086-11.199-3.669-15.595-.303-8.56 1.651-14.86 3.669-21.099 .012-3.069-2.324-3.792-3.669-5.504 .824-1.622 2.214-2.679 2.752-4.587-2.178-10.301 4.884-27.526 6.421-38.528 .771-5.519 1.376-10.725 3.669-16.512 .17-.432 1.686-.578 1.834-.918 .877-2 .894-4.752 1.834-7.338 .74-2.033 2.377-3.863 2.752-5.504 .33-1.444-.382-3.157 0-4.586 .141-.527 1.727-2.356 1.834-2.752 .958-3.524.745-8.373 1.834-11.008 .316-.764 1.544-.649 1.835-1.834 1.373-5.602.131-13.179 2.752-18.347 .541-1.066 1.941-2.232 2.752-3.669 1.984-3.516 1.941-5.416 5.504-7.339 3.229-13.283 12.997-20.028 12.843-36.693 4.208-5.578 4.377-15.193 11.008-18.347 6.622.106 9.046,4.408 14.677,5.504 1.615-4.159-1.329-11.321 1.835-15.595 15.07-3.354 28.714-2.48 45.867-3.669 6.056-5.387 16.367-10.588 23.851-16.512 3.215-2.545 6.168-6.583 9.173-9.173 .624-.537 2.12-.332 2.753-.917 2.422-2.244 3.795-6.01 6.421-7.339 3.246-1.642 8.285-2.056 11.008-1.834 6.055.493 14.151,11.093 13.761,12.843 1.18,11.271-4.65,15.531-6.422,23.851 3.041,1.022 10.493.328 15.595-.917 5.21-1.272 10.293-4.737 15.595-5.504 20.354-2.947 21.624,2.252 24.769,3.669 1.628.734 2.073.797 3.669,3.669 .43.773 1.799,3.499 1.835,3.669 3.239,15.517-12.983,21.813-22.934,27.52 .779,2.691 6.322,2.954 7.339,4.587 1.772,2.846 3.704,7.104 5.504,11.008 .768,1.667-.035,2.695.917,5.504 .771,2.271 2.574,3.66 2.752,6.421 .108,1.666-.391,5.812-.917,8.256-.377,1.754-2.309,4.222-2.752,6.421-.29,1.439.413,3.183 0,4.586-.502,1.708-2.096,2.668-2.752,4.587-.816,2.385-.463,5.472-.917,6.421-1.476,3.08-4.705,4.6-5.505,7.339 .409,2.343 1.287,4.217 2.752,5.504 .713,17.452 14.792,33.849 4.587,48.619-4.112.895-10.861,5.385-14.677.918-4.683,3.201-2.752,11.918-2.752,19.264 0,10.542-1.272,22.591-.918,29.355 .073,1.399-.287,8.013-.366,10.484-.299,9.264 2.381,23.589-6.055,30.796-32.517.913-52.053.97-83.479,0-4.668,7.868-11.542,13.531-15.595,22.016-5.69,1.954-10.38,4.909-13.76,9.174-11.554,2.512-19.154,8.978-26.603,15.595-.239,2.818-1.99,4.125-2.752,6.421-9.403,2.703-23.356,3.469-28.438-2.752-.816.713-2.071.986-3.669.917-3.957-6.133-12.875-7.307-14.677-15.595-1.874-.878-3.63-1.874-5.504-2.752 1.75-1.308 3.983-2.132 6.421-2.752-1.312-1.34-1.348-3.552 1.834-2.752-.636-.74-1.427-2.513 0-2.752 3.589-1.449 1.899,2.382 3.669,2.752 1.972.281 1.388-1.456 2.752-1.835 2.25-.624 4.188,1.337 7.339.918 .848,2.456-1.865,1.088-2.752,1.835-1.177.989-.536,3.798-4.587,2.752-1.679,2.818.826,4.125-.917,6.421 1.09,2.273 6.709.018 6.421,3.67-1.647.1-1.936-1.14-3.671-.93zm199.06-276.12c2.722,1.207 4.525.812 5.504-1.834-2.296.114-2.872,1.751-3.669-.917 1.343-.797 2.907-1.373 2.752-3.669-1.885-.256-1.831-2.45-2.752-3.669-2.482-1.647-4.567,1.592-6.422,1.835-.033.004-1.112-1.899-1.835-1.835-1.407.126-4.78,2.371-7.338,2.752-4.018.6-5.73.618-7.339,2.752 2.686.824 2.818.824 5.504,0 .551,5.259 6.587,5.032 10.091,7.338 .104-1.119.274-2.172 1.834-1.834-3.426,3.02.622,1.85.918,5.504-2.42-.279-2.366,1.915-2.752,3.669 3.092-.271 2.66-4.067 5.504-4.586 .649,2.115-.428,5.03 4.587,4.586 .804-4.275-2.38,1.264-2.752-1.834 .083-1.446 2.339-.718 1.834-2.752-2.35-.097-4.373-.52-5.504-1.835 .88-4.117 5.17,1.57 1.85-3.671zm-56.88-28.438c.01-.914 2.051-1.223 1.835-1.834-.285-.808-4.708-1.332-1.835-3.669-2.826.686-1.118-3.163-4.587-1.834-3.698,4.012-8.067,7.622-12.843,11.008-.836.593-2.838,1.148-3.669,1.835-4.312,3.56-7.962,10.417-13.761,11.008 1.005,5.286-5.831,2.73-6.421,6.421 5.786-.257 11.441-3.704 16.512-1.834 3.547-4.766 6.77-.89 11.009-1.835-1.9-4.958 5-1.115 5.504-3.669-2.35-.097-4.374-.519-5.504-1.834 2.347-3.507 5.653-3.139 9.173-.917 1.801-3.442-.866-2-1.835-4.586 2.017-1.882-1.908-6.058 2.752-6.421-.678,3.252 2.97,6.172 3.67,2.752-2.258,1.426-2.697-3.116-.918-2.752 1.227,1.157 1.802,2.757 3.67.917 .95-4.225-2.77-.147-2.74-2.756zm13.76,26.603c-8.623-.181-17.411,0-26.603,0-27.338,0-55.267-.688-77.974,1.834-2.406,6.333-4.125,12.55-3.669,19.264 .282,4.157 2.5,8.571 2.752,12.843 .516,8.753-2.075,17.2-2.752,25.686-1.15,14.418.376,29.205 0,44.032-.505,19.939-.6,39.738-.917,60.544-.241,15.77.227,31.034 0,45.867-.109,7.144-1.765,14.281.917,21.099 8.497,2.896 18.063,2.118 27.521,1.835 28.084-.842 71.543-1.122 101.82-1.835 4.129-9.511 3.67-21.22 3.67-32.106 0-37.144.787-72.312 1.834-103.66-1.296-2.825-3.873-3.981-5.504-6.421-7.843-11.741-5.842-30.745 0-41.28 1.566-2.824 3.173-4.692 4.587-6.421 .864-1.057.383-.993.917-2.752 1.689-5.551 1.082-12.43.918-18.347-.169-6.048.317-12.618-2.752-17.43-7.28-2.488-16.03-2.561-24.78-2.745zm-134.84,38.529c2.15.507 2.271-2.444 2.752-3.669 1.93-4.91 3.256-10.312 4.587-15.595-.203-.715-.769-1.066-1.835-.917-2.533,6.028-5.22,11.903-5.504,20.181zm174.3,5.504c-.257-2.25-5.474-4.228-6.421-2.752 2.64.414 2.87,3.246 6.42,2.752zm-.92.917c-3.072.86-5.782-3.293-7.339-.917 1.47.747 5.6,3.478 7.34.917zm-3.67,6.422c-1.134-2.968 2.968-.701 1.834-3.669-2.844.092-4.382-1.122-6.421-1.835-.688,3.135 3.727,1.166 2.752,4.587-.149-1.177-5.599-1.177-2.752,0 2.22-.376 2,1.674 4.59.917zm7.34,23.853c-1.115-3.201-1.666-12.044 2.753-9.173 .416-4.392-.996-6.955-3.67-8.256-4.22,4.086-5.04,14.686.92,17.426zm-16.51-5.51c.04,1.263-.432,2.014-.917,2.752 2.823,1.152 6.952.998 8.256,3.669-2.14-.279-3.952-1.958-4.587.917 3.745-.488.424,2.398.918,3.669 .182.468 2.89-.005 1.834,1.834-1.084-.132-2.079-1.633-2.752,0 1.361.78 1.973,2.309 1.835,4.586 2.593-.758 2.376,1.293 4.587.917-1.02-2.88-.43-2.423.917-4.586-.712-.206-1.81-.025-1.835-.917 3.077-5.128-3.002-10.496.918-11.925-3.07-1.086-6.24-2.095-1.835-3.669-2.161.021-2.701-1.58-5.504-.917-.088,1.441.123,3.181-1.835,2.752 .003-.509-.743-1.041-.917,0 .56.07 1.09.15.92.93zm-146.78,34.86c-1.483-4.606 3.822-10.955-.917-12.843 1.346,4.96-2.529,11.54.917,12.84zm154.12-1.83c-.518-2.234-.785-4.719-3.669-4.587 .57,2.18 1.23,4.27 3.67,4.59zm-150.45,11c3.544,1.184 1.763-10.961.917-8.256-.187,2.88.619,6.74-.917,8.26zm146.78,2.76c3.26.07 2.534-10.02 0-10.091v10.09zm13.76,9.17c-1.365-3.833-.697-9.699-4.587-11.008 1.82,3.38-.6,11 4.59,11.01zm-164.2-4.59c1.735.206 2.024-1.034 3.669-.917 .144,1.08-.158,2.604.917,2.752-.546-1.9 1.134-6.026-.917-6.421 .698,3.46-4.871.64-3.669,4.59zm-6.421-.91c-.831,5.259-.003,7.13-1.835,11.926 3.315-.472 2.388-8.092 2.752-11.008 1.168-1.278 4.494-.399 4.587-2.752-2.145.29-3.79,1.1-5.504,1.83zm-6.422,15.59c.728.742 5.621.965 5.504-1.835-2.296.114-2.872,1.751-3.669-.917 2.158-.787 2.716-5.301 0-5.504 .394,3.76-.85,5.88-1.835,8.26zm170.63,1.84c-.8-3.183 1.412-3.147 2.752-1.835 .142-2.282-1.44-2.84-1.834-4.587-1.9.546-6.026-1.134-6.422.918 2.381.371 2.648,2.855 3.67,4.586-1.227-.1-5.058-1.719-2.752,0 1.05.77 2.45,1.21 4.58.92zm-169.71,59.62c2.929,1.294 2.318-5.489.917-5.504-1.666,2.38.398,2.77-.917,5.5zm2.752,23.85c2.916.408 7.218-2.484 5.504-3.669-1.181,1.88-5.147.97-5.504,3.67zm-2.752,4.59c4.06-.527 7.125-2.048 9.173-4.587-3.55,1.04-7.438,1.74-9.173,4.59zm22.934,19.26c-1.525.11-8.308-.501-5.504.918 4.311.062 9.714.446 7.338,4.587 3.261,1.426.554-3.116 2.752-2.753 1.333.502 4.742-1.071 4.587.918-1.378,1.777-3.863-1.604-4.587,1.835h5.504c.087-1.441-.123-3.182 1.834-2.753 .585,2.002-2.6,2.919.917,2.753-1.375-5.962 8.714-.459 10.09-3.67-4.536.423-2.628-5.191-.917-5.504-.319,3.778 2.254,2.182 3.669,4.587-.29-.494-1.705,2.776.918,1.834-.721-4.694 1.286-6.663.917-11.008-9.138,1.246-23.111-1.555-32.107,0 4.287.103-.652,1.682-.917,2.752 1.529,1.224 5.837-.333 5.504,2.752-2.365.819-8.185-1.497-5.504,0 .519,2.22 5.928-.44 5.497,2.74zm28.437-3.66c3.193-1.553 3.204-.339 4.586,1.835-.021-2.161 1.58-2.701.918-5.504-2.969-1.134-.701,2.968-3.67,1.834-.205-.712-.025-1.81-.917-1.834 .2,1.72-1.04,2.01-.92,3.66zm-62.378,2.75c2.349-.708 5.2-.915 6.421-2.752-2.264.79-6.351-.24-6.421,2.75z"/>
  <path d="m226.61,46.839c1.131,1.315 3.154,1.738 5.504,1.835 .505,2.034-1.751,1.306-1.834,2.752 .372,3.098 3.556-2.441 2.752,1.834-5.015.444-3.938-2.472-4.587-4.586-2.844.52-2.412,4.315-5.504,4.586 .386-1.754.332-3.948 2.752-3.669-.296-3.654-4.344-2.484-.918-5.504-1.56-.337-1.73.715-1.834,1.834-3.504-2.306-9.54-2.079-10.091-7.338-2.686.824-2.818.824-5.504,0 1.608-2.134 3.321-2.152 7.339-2.752 2.558-.382 5.931-2.626 7.338-2.752 .723-.064 1.802,1.839 1.835,1.835 1.854-.243 3.939-3.482 6.422-1.835 .921,1.219.867,3.414 2.752,3.669 .155,2.296-1.409,2.872-2.752,3.669 .797,2.668 1.373,1.032 3.669.917-.979,2.646-2.782,3.042-5.504,1.834 3.32,5.243-.97-.444-1.84,3.671z" fill="#fff"/>
  <path d="m215.61,91.789c-2.847-1.177 2.603-1.177 2.752,0 .975-3.421-3.44-1.452-2.752-4.587 2.039.713 3.577,1.927 6.421,1.835 1.134,2.968-2.968.701-1.834,3.669-2.6.758-2.38-1.292-4.59-.917z" fill="#fff"/>
  <path d="m210.1,110.14c.174-1.041.92-.509.917,0 1.958.429 1.747-1.311 1.835-2.752 2.803-.663 3.343.938 5.504.917-4.405,1.575-1.235,2.583 1.835,3.669-3.92,1.43 2.159,6.797-.918,11.925 .025.892 1.123.712 1.835.917-1.347,2.163-1.937,1.707-.917,4.586-2.211.375-1.994-1.675-4.587-.917 .138-2.278-.474-3.807-1.835-4.586 .673-1.633 1.668-.132 2.752,0 1.056-1.839-1.652-1.367-1.834-1.834-.494-1.271 2.827-4.157-.918-3.669 .635-2.875 2.447-1.196 4.587-.917-1.304-2.671-5.433-2.518-8.256-3.669 .485-.738.957-1.489.917-2.752 .16-.79-.37-.87-.93-.92z" fill="#fff"/>
  <path d="m217.44,178.02c-2.306-1.719 1.525-.1 2.752,0-1.021-1.73-1.289-4.215-3.67-4.586 .396-2.052 4.521-.372 6.422-.918 .394,1.747 1.976,2.305 1.834,4.587-1.34-1.312-3.552-1.348-2.752,1.835-2.12.29-3.52-.15-4.58-.92z" fill="#fff"/>
  <path d="m60.576,258.74c1.713,1.185-2.588,4.077-5.504,3.669 .356-2.7 4.322-1.79 5.504-3.67z" fill="#fff"/>
  <path d="m69.749,283.51c-2.681-1.497 3.139.819 5.504,0 .333-3.085-3.975-1.528-5.504-2.752 .265-1.07 5.204-2.649.917-2.752 8.996-1.555 22.969,1.246 32.107,0 .369,4.345-1.638,6.313-.917,11.008-2.623.942-1.208-2.328-.918-1.834-1.415-2.405-3.988-.809-3.669-4.587-1.711.312-3.619,5.927.917,5.504-1.376,3.211-11.465-2.292-10.09,3.67-3.517.166-.333-.751-.917-2.753-1.958-.429-1.747,1.312-1.834,2.753h-5.504c.724-3.439 3.208-.058 4.587-1.835 .155-1.989-3.254-.416-4.587-.918-2.198-.363.509,4.179-2.752,2.753 2.376-4.141-3.028-4.524-7.338-4.587-2.804-1.419 3.979-.808 5.504-.918 .437-3.18-4.972-.52-5.498-2.75zm9.173,3.67h2.752c-1.873-2.179 1.901-4.271-1.835-4.587 .759,2.6-1.292,2.38-.917,4.59zm10.091,0c2.797-.359 4.671,2.411 5.504-.918-1.802-.25-4.585-1.63-5.504.92z" fill="#fff"/>
  <path d="m174.33,17.484c-1.868,1.84-2.443.24-3.67-.917-1.779-.364-1.34,4.178.918,2.752-.7,3.42-4.348.5-3.67-2.752-4.66.363-.735,4.54-2.752,6.421 .969,2.586 3.636,1.144 1.835,4.586-3.52-2.222-6.826-2.589-9.173.917 1.13,1.315 3.154,1.738 5.504,1.834-.504,2.554-7.404-1.288-5.504,3.669-4.239.945-7.462-2.931-11.009,1.835-5.07-1.87-10.726,1.578-16.512,1.834 .59-3.691 7.426-1.135 6.421-6.421 5.799-.59 9.448-7.448 13.761-11.008 .831-.687 2.833-1.242 3.669-1.835 4.775-3.386 9.145-6.996 12.843-11.008 3.469-1.328 1.761,2.521 4.587,1.834-2.873,2.338 1.55,2.862 1.835,3.669 .216.612-1.825.92-1.835,1.834-.04,2.613 3.68-1.465 2.75,2.756z" fill="#fff"/>
 </g>
</svg>
